<mxfile host="www.draw.io" modified="2020-09-12T10:12:57.570Z" agent="5.0 (Macintosh; Intel Mac OS X 10_13_6) AppleWebKit/537.36 (KHTML, like Gecko) Chrome/85.0.4183.83 Safari/537.36" etag="PiLslhXjq2WPJlNrR8_l" version="13.6.6" type="github">
  <diagram name="Page-1" id="d9b1e647-80fa-b4a2-5024-87a742678bcc">
    <mxGraphModel dx="2046" dy="1027" grid="1" gridSize="10" guides="1" tooltips="1" connect="1" arrows="1" fold="1" page="1" pageScale="1" pageWidth="1100" pageHeight="850" background="#ffffff" math="0" shadow="0">
      <root>
        <mxCell id="0" />
        <mxCell id="1" parent="0" />
        <mxCell id="57fe6abec08f04cb-2" value="Mar" style="shape=step;whiteSpace=wrap;html=1;fontSize=28;fillColor=#0075E8;fontColor=#FFFFFF;strokeColor=none;" parent="1" vertex="1">
          <mxGeometry x="200" y="70" width="170" height="80" as="geometry" />
        </mxCell>
        <mxCell id="57fe6abec08f04cb-3" value="May" style="shape=step;whiteSpace=wrap;html=1;fontSize=28;fillColor=#0067CC;fontColor=#FFFFFF;strokeColor=none;" parent="1" vertex="1">
          <mxGeometry x="350" y="70" width="170" height="80" as="geometry" />
        </mxCell>
        <mxCell id="57fe6abec08f04cb-4" value="July" style="shape=step;whiteSpace=wrap;html=1;fontSize=28;fillColor=#0062C4;fontColor=#FFFFFF;strokeColor=none;" parent="1" vertex="1">
          <mxGeometry x="500" y="70" width="170" height="80" as="geometry" />
        </mxCell>
        <mxCell id="57fe6abec08f04cb-5" value="Sep" style="shape=step;whiteSpace=wrap;html=1;fontSize=28;fillColor=#0059B0;fontColor=#FFFFFF;strokeColor=none;" parent="1" vertex="1">
          <mxGeometry x="650" y="70" width="170" height="80" as="geometry" />
        </mxCell>
        <mxCell id="57fe6abec08f04cb-6" value="Nov" style="shape=step;whiteSpace=wrap;html=1;fontSize=28;fillColor=#004D99;fontColor=#FFFFFF;strokeColor=none;" parent="1" vertex="1">
          <mxGeometry x="800" y="70" width="170" height="80" as="geometry" />
        </mxCell>
        <mxCell id="FFcQqnqTQvhnuVRR3oSx-1" value="" style="rounded=1;whiteSpace=wrap;html=1;" vertex="1" parent="1">
          <mxGeometry x="60" y="300" width="540" height="140" as="geometry" />
        </mxCell>
        <mxCell id="FFcQqnqTQvhnuVRR3oSx-7" value="" style="rounded=0;whiteSpace=wrap;html=1;" vertex="1" parent="1">
          <mxGeometry x="70" y="230" width="180" height="60" as="geometry" />
        </mxCell>
        <mxCell id="FFcQqnqTQvhnuVRR3oSx-3" value="" style="verticalLabelPosition=bottom;html=1;verticalAlign=top;align=center;strokeColor=none;fillColor=#00BEF2;shape=mxgraph.azure.mobile;pointerEvents=1;" vertex="1" parent="1">
          <mxGeometry x="80" y="235" width="32" height="50" as="geometry" />
        </mxCell>
        <mxCell id="FFcQqnqTQvhnuVRR3oSx-4" value="" style="image;html=1;image=img/lib/clip_art/networking/Ip_Camera_128x128.png" vertex="1" parent="1">
          <mxGeometry x="130" y="235" width="50" height="50" as="geometry" />
        </mxCell>
        <mxCell id="FFcQqnqTQvhnuVRR3oSx-5" value="" style="verticalLabelPosition=bottom;html=1;verticalAlign=top;align=center;strokeColor=none;fillColor=#00BEF2;shape=mxgraph.azure.computer;pointerEvents=1;" vertex="1" parent="1">
          <mxGeometry x="190" y="237.5" width="50" height="45" as="geometry" />
        </mxCell>
        <mxCell id="FFcQqnqTQvhnuVRR3oSx-10" value="&lt;font style=&quot;font-size: 18px&quot;&gt;采集&lt;/font&gt;" style="rounded=1;whiteSpace=wrap;html=1;" vertex="1" parent="1">
          <mxGeometry x="190" y="780" width="80" height="40" as="geometry" />
        </mxCell>
        <mxCell id="FFcQqnqTQvhnuVRR3oSx-11" value="&lt;font style=&quot;font-size: 18px&quot;&gt;预处理&lt;/font&gt;" style="rounded=1;whiteSpace=wrap;html=1;" vertex="1" parent="1">
          <mxGeometry x="330" y="780" width="80" height="40" as="geometry" />
        </mxCell>
        <mxCell id="FFcQqnqTQvhnuVRR3oSx-12" value="&lt;font style=&quot;font-size: 18px&quot;&gt;编码&lt;/font&gt;" style="rounded=1;whiteSpace=wrap;html=1;" vertex="1" parent="1">
          <mxGeometry x="70" y="780" width="80" height="40" as="geometry" />
        </mxCell>
        <mxCell id="57fe6abec08f04cb-1" value="&lt;font style=&quot;font-size: 18px&quot;&gt;采集&lt;/font&gt;" style="shape=step;whiteSpace=wrap;html=1;fontSize=28;fillColor=#0080FF;fontColor=#FFFFFF;strokeColor=none;" parent="1" vertex="1">
          <mxGeometry x="80" y="310" width="100" height="40" as="geometry" />
        </mxCell>
        <mxCell id="FFcQqnqTQvhnuVRR3oSx-15" value="&lt;font style=&quot;font-size: 18px&quot;&gt;预处理&lt;/font&gt;" style="shape=step;whiteSpace=wrap;html=1;fontSize=28;fillColor=#0080FF;fontColor=#FFFFFF;strokeColor=none;" vertex="1" parent="1">
          <mxGeometry x="240" y="310" width="100" height="40" as="geometry" />
        </mxCell>
        <mxCell id="FFcQqnqTQvhnuVRR3oSx-16" value="&lt;font style=&quot;font-size: 18px&quot;&gt;编码&lt;/font&gt;" style="shape=step;whiteSpace=wrap;html=1;fontSize=28;fillColor=#0080FF;fontColor=#FFFFFF;strokeColor=none;" vertex="1" parent="1">
          <mxGeometry x="400" y="310" width="100" height="40" as="geometry" />
        </mxCell>
      </root>
    </mxGraphModel>
  </diagram>
</mxfile>
